<?xml version="1.0" encoding="UTF-8" standalone="no"?>
<!-- Created with Inkscape (http://www.inkscape.org/) -->

<svg
   width="61.367588mm"
   height="76.702698mm"
   viewBox="0 0 61.367588 76.702698"
   version="1.1"
   id="svg1"
   xmlns:inkscape="http://www.inkscape.org/namespaces/inkscape"
   xmlns:sodipodi="http://sodipodi.sourceforge.net/DTD/sodipodi-0.dtd"
   xmlns="http://www.w3.org/2000/svg"
   xmlns:svg="http://www.w3.org/2000/svg">
  <sodipodi:namedview
     id="namedview1"
     pagecolor="#ffffff"
     bordercolor="#000000"
     borderopacity="0.25"
     inkscape:showpageshadow="2"
     inkscape:pageopacity="0.0"
     inkscape:pagecheckerboard="0"
     inkscape:deskcolor="#d1d1d1"
     inkscape:document-units="mm" />
  <defs
     id="defs1" />
  <g
     inkscape:label="Layer 1"
     inkscape:groupmode="layer"
     id="layer1"
     transform="translate(-74.347917,-110.33125)">
    <g
       id="g10"
       transform="matrix(0.26458333,0,0,0.26458333,70.696628,109.51104)">&#10;	<path
   class="st1"
   d="m 22.3,293 c -1.6,0 -3.3,-0.5 -4.7,-1.4 -2.8,-1.8 -4.2,-5.1 -3.7,-8.4 L 38.2,133.9 c 1.3,-8 5.4,-15.2 11.5,-20.4 6.1,-5.2 14,-8.1 22,-8.1 h 100.1 l 5.6,-34.3 H 168 c -4.2,0 -8.1,-1.8 -10.8,-5 -2.7,-3.2 -3.9,-7.3 -3.2,-11.4 L 160.4,15 c 1.1,-6.9 7,-11.9 14,-11.9 h 37.3 c 10,0 19.4,4.4 25.9,12 6.5,7.6 9.3,17.6 7.7,27.5 l -15,92.4 c -0.7,4 -3,7.6 -6.5,9.8 L 140,196.5 c -5.1,3.1 -11.6,2.8 -16.3,-1 l -39,-31.1 c -3.7,-2.9 -4.3,-8.3 -1.3,-11.9 2.9,-3.7 8.3,-4.3 11.9,-1.3 l 37.5,29.9 81,-50.2 14.8,-91.1 c 0.8,-4.9 -0.6,-9.9 -3.8,-13.7 -3.2,-3.8 -7.9,-6 -12.9,-6 H 177 l -5.5,34 h 9.3 c 4.2,0 8.1,1.8 10.8,5 2.7,3.2 3.9,7.3 3.2,11.4 l -6.5,39.9 c -1.1,6.9 -7,11.9 -14,11.9 H 71.7 c -8.4,0 -15.4,6 -16.8,14.3 L 33.6,267.5 63.5,249 c 2.2,-1.4 4.8,-2.1 7.5,-2.1 h 109.5 c 8.4,0 15.4,-6 16.8,-14.3 l 6.8,-41.9 c 0.8,-4.6 5.1,-7.8 9.7,-7 4.6,0.8 7.8,5.1 7,9.7 l -6.8,41.9 c -1.3,8 -5.4,15.2 -11.5,20.4 -6.1,5.2 -14,8.1 -22,8.1 H 71.7 l -45,27.9 c -1.3,0.9 -2.9,1.3 -4.4,1.3 z"
   id="path9"
   style="fill:#089949" />
&#10;</g>
  </g>
</svg>
