<?xml version="1.0" encoding="UTF-8" standalone="no"?>
<!-- Created with Inkscape (http://www.inkscape.org/) -->

<svg
   width="61.838295mm"
   height="75.631607mm"
   viewBox="0 0 61.838295 75.631607"
   version="1.1"
   id="svg1"
   xmlns:inkscape="http://www.inkscape.org/namespaces/inkscape"
   xmlns:sodipodi="http://sodipodi.sourceforge.net/DTD/sodipodi-0.dtd"
   xmlns="http://www.w3.org/2000/svg"
   xmlns:svg="http://www.w3.org/2000/svg">
  <sodipodi:namedview
     id="namedview1"
     pagecolor="#ffffff"
     bordercolor="#000000"
     borderopacity="0.25"
     inkscape:showpageshadow="2"
     inkscape:pageopacity="0.0"
     inkscape:pagecheckerboard="0"
     inkscape:deskcolor="#d1d1d1"
     inkscape:document-units="mm" />
  <defs
     id="defs1" />
  <g
     inkscape:label="Layer 1"
     inkscape:groupmode="layer"
     id="layer1"
     transform="translate(-74.08333,-110.59584)">
    <path
       d="m 104.86962,119.93602 c -1.25333,0.008 -2.50349,0.49345 -3.45387,1.45548 l -16.57932,16.78516 c -1.900502,1.92405 -1.881452,5.02444 0.0426,6.92494 l 16.78516,16.57959 c 1.92405,1.9005 5.02444,1.88118 6.92494,-0.0429 l 16.57959,-16.7849 c 1.9005,-1.92405 1.88119,-5.0247 -0.0429,-6.9252 L 108.34095,121.3489 c -0.96202,-0.95012 -2.21826,-1.42055 -3.47133,-1.41288 z m -0.0577,-9.34005 c 1.79546,-0.0111 3.59543,0.66278 4.9739,2.02432 l 24.0501,23.75562 c 2.75696,2.72309 2.78421,7.16544 0.0611,9.9224 l -23.75562,24.0501 c -2.72309,2.75696 -7.16544,2.78421 -9.92214,0.0611 l -24.050315,-23.7556 c -2.756694,-2.72309 -2.784211,-7.16544 -0.06112,-9.92214 L 99.86344,112.68141 c 1.36155,-1.37848 3.15278,-2.07433 4.9485,-2.08544 z"
       fill="#002060"
       fill-rule="evenodd"
       id="path3"
       style="stroke-width:0.264583" />
    <path
       d="m 104.94318,131.89096 c -0.5588,0.003 -1.11655,0.22013 -1.54041,0.64928 l -7.394044,7.48586 c -0.847461,0.85804 -0.838994,2.24076 0.01905,3.08848 l 7.485854,7.39405 c 0.85805,0.84746 2.24076,0.83899 3.08848,-0.0191 l 7.39405,-7.48586 c 0.84772,-0.85804 0.83899,-2.24076 -0.0191,-3.08848 l -7.48586,-7.39405 c -0.42915,-0.42386 -0.98927,-0.63367 -1.54807,-0.63023 z m -0.0421,-6.81514 c 0.95488,-0.006 1.91161,0.35242 2.64451,1.07632 l 12.78704,12.63042 c 1.4658,1.4478 1.48035,3.80973 0.0326,5.27553 l -12.63042,12.78704 c -1.4478,1.46579 -3.80973,1.48035 -5.27552,0.0325 L 89.672219,144.24726 c -1.465791,-1.4478 -1.480343,-3.80973 -0.03254,-5.27552 l 12.630411,-12.78705 c 0.7239,-0.7329 1.6764,-1.10279 2.63102,-1.10887 z"
       fill="#0070c0"
       fill-rule="evenodd"
       id="path4"
       style="stroke-width:0.264583" />
    <path
       d="m 105.17469,160.16433 c -0.5588,0.003 -1.11628,0.22013 -1.54014,0.64929 l -7.394314,7.48585 c -0.84746,0.85805 -0.838994,2.24076 0.01905,3.08822 l 7.485854,7.39431 c 0.85831,0.84746 2.24102,0.839 3.08848,-0.0191 l 7.39431,-7.48585 c 0.84746,-0.85805 0.839,-2.24076 -0.0191,-3.08849 l -7.48585,-7.39404 c -0.42916,-0.42386 -0.98928,-0.63368 -1.54834,-0.63024 z m -0.0418,-6.81514 c 0.95462,-0.006 1.91162,0.35243 2.64451,1.07633 l 12.78705,12.63041 c 1.46579,1.4478 1.48034,3.80974 0.0325,5.27553 l -12.63041,12.78705 c -1.4478,1.46579 -3.80974,1.48034 -5.27553,0.0325 L 89.903994,172.52064 c -1.465791,-1.4478 -1.480343,-3.80974 -0.03254,-5.27553 l 12.630416,-12.78705 c 0.7239,-0.73289 1.6764,-1.10305 2.63101,-1.10887 z"
       fill="#0070c0"
       fill-rule="evenodd"
       id="path5"
       style="stroke-width:0.264583" />
    <path
       d="m 111.82816,158.36966 5.13001,5.12101 -3.99786,4.00527 -5.13027,-5.12102 z"
       fill="#002060"
       fill-rule="evenodd"
       id="path6"
       style="stroke-width:0.264583" />
  </g>
</svg>
