<?xml version="1.0" encoding="UTF-8" standalone="no"?>
<!-- Created with Inkscape (http://www.inkscape.org/) -->

<svg
   width="67.733322mm"
   height="67.733337mm"
   viewBox="0 0 67.733322 67.733337"
   version="1.1"
   id="svg1"
   xmlns:inkscape="http://www.inkscape.org/namespaces/inkscape"
   xmlns:sodipodi="http://sodipodi.sourceforge.net/DTD/sodipodi-0.dtd"
   xmlns="http://www.w3.org/2000/svg"
   xmlns:svg="http://www.w3.org/2000/svg">
  <sodipodi:namedview
     id="namedview1"
     pagecolor="#ffffff"
     bordercolor="#000000"
     borderopacity="0.25"
     inkscape:showpageshadow="2"
     inkscape:pageopacity="0.0"
     inkscape:pagecheckerboard="0"
     inkscape:deskcolor="#d1d1d1"
     inkscape:document-units="mm" />
  <defs
     id="defs1" />
  <g
     inkscape:label="Layer 1"
     inkscape:groupmode="layer"
     id="layer1"
     transform="translate(-71.172907,-114.82917)">
    <path
       d="m 81.59141,140.59297 v 32.34531 h 10.054166 v -32.34531 z m 35.30097,-1.26762 c -3.75179,0 -7.11544,1.66343 -9.39297,4.29286 l -1.03717,1.42267 v -4.44791 h -9.524997 v 32.34531 h 10.186197 v -18.12131 l 0.0143,-0.14208 -0.0143,-0.14182 0.12462,-1.23507 c 0.5715,-2.79268 3.04244,-4.89374 6.00418,-4.89374 3.38482,0 6.12881,2.744 6.12881,6.12881 v 0 l -0.0143,0.14208 0.0143,0.14182 v 18.12131 h 9.91659 v -1.78752 l 0.0169,-0.16881 v -18.80896 l -0.0214,-0.21246 0.0214,-0.21273 v 0 c 0,-6.86064 -5.56154,-12.42245 -12.42219,-12.42245 z M 86.618493,124.45339 c -3.233208,0 -5.853906,2.62096 -5.853906,5.8539 0,3.23295 2.620698,5.85391 5.853906,5.85391 3.232944,0 5.853906,-2.62096 5.853906,-5.85391 0,-3.23294 -2.620962,-5.8539 -5.853906,-5.8539 z m -10.706364,-9.62422 h 58.254901 c 2.61726,0 4.73921,2.12195 4.73921,4.73921 v 58.2549 c 0,2.61726 -2.12195,4.73922 -4.73921,4.73922 H 75.912129 c -2.617259,0 -4.739217,-2.12196 -4.739217,-4.73922 v -58.2549 c 0,-2.61726 2.121958,-4.73921 4.739217,-4.73921 z"
       fill="#0a66c2"
       fill-rule="evenodd"
       id="path8"
       style="stroke-width:0.264583" />
    <path
       d="m 81.527116,140.5599 h 10.081683 v 32.4776 H 81.527116 Z m 35.397814,-1.27291 c 6.87943,0 12.45631,5.58456 12.45631,12.47325 v 0 l -0.0214,0.21352 0.0214,0.21351 v 18.88596 l -0.0172,0.16934 v 1.79493 h -9.94357 v -18.19566 l -0.0143,-0.14235 0.0143,-0.14234 v 0 c 0,-3.39884 -2.75141,-6.15395 -6.14548,-6.15395 -2.96995,0 -5.44777,2.10953 -6.02086,4.91358 l -0.12488,1.24037 0.0143,0.14234 -0.0143,0.14235 V 173.0375 H 96.915018 v -32.4776 h 9.550932 v 4.4659 l 1.04007,-1.42822 c 2.28389,-2.64028 5.6568,-4.31059 9.41891,-4.31059 z M 86.567958,124.35417 c 3.241939,0 5.869781,2.63154 5.869781,5.87798 0,3.24617 -2.627842,5.87772 -5.869781,5.87772 -3.24194,0 -5.870046,-2.63155 -5.870046,-5.87772 0,-3.24644 2.628106,-5.87798 5.870046,-5.87798 z"
       fill="#ffffff"
       fill-rule="evenodd"
       id="path9"
       style="stroke-width:0.264583" />
  </g>
</svg>
