<?xml version="1.0" encoding="UTF-8" standalone="no"?>
<!-- Created with Inkscape (http://www.inkscape.org/) -->

<svg
   width="159.27916mm"
   height="22.228666mm"
   viewBox="0 0 159.27916 22.228666"
   version="1.1"
   id="svg1"
   xmlns:inkscape="http://www.inkscape.org/namespaces/inkscape"
   xmlns:sodipodi="http://sodipodi.sourceforge.net/DTD/sodipodi-0.dtd"
   xmlns="http://www.w3.org/2000/svg"
   xmlns:svg="http://www.w3.org/2000/svg">
  <sodipodi:namedview
     id="namedview1"
     pagecolor="#ffffff"
     bordercolor="#000000"
     borderopacity="0.25"
     inkscape:showpageshadow="2"
     inkscape:pageopacity="0.0"
     inkscape:pagecheckerboard="0"
     inkscape:deskcolor="#d1d1d1"
     inkscape:document-units="mm" />
  <defs
     id="defs1" />
  <g
     inkscape:label="Layer 1"
     inkscape:groupmode="layer"
     id="layer1"
     transform="translate(-25.4,-137.5834)">
    <path
       d="m 32.212227,141.99605 c -0.216694,0 -0.425715,0.0273 -0.626269,0.0815 l -0.461698,0.19526 -1.109927,1.19353 -0.128588,0.30295 c -0.05424,0.20214 -0.08123,0.4146 -0.08123,0.63712 v 6.90536 c 0,0.43444 0.108479,0.83608 0.325438,1.20518 0.216958,0.36909 0.509587,0.66225 0.878416,0.87947 0.36883,0.21722 0.770203,0.3257 1.203855,0.3257 h 4.390495 l 0.05794,-0.0116 h 4.849283 v -0.0153 h 0.01323 v -5.15593 h -0.0048 v -4.13279 c 0,-0.44503 -0.111389,-0.84958 -0.333639,-1.21312 -0.22225,-0.3638 -0.515144,-0.65431 -0.878417,-0.87153 -0.363538,-0.21696 -0.762,-0.32571 -1.195917,-0.32571 z m -2.593711,-4.40901 h 12.085638 c 0.760147,0 1.458647,0.19023 2.095235,0.5707 0.636587,0.38047 1.149615,0.88927 1.539081,1.52665 0.389467,0.63712 0.584465,1.34567 0.584465,2.12566 v 1.28164 h -0.01032 v 10.62699 h 0.755121 l 0.244739,0.0495 c 0.263261,0.11139 0.44794,0.37253 0.44794,0.67654 v 2.93767 c 0,0.4056 -0.328348,0.73422 -0.73369,0.73422 h -0.683154 v 0.95805 c 0,0.4072 -0.329935,0.7374 -0.7366,0.7374 h -2.946135 c -0.406665,0 -0.7366,-0.3302 -0.7366,-0.7374 v -0.94326 h -11.90572 c -0.760148,0 -1.463146,-0.19023 -2.109258,-0.5707 -0.646113,-0.38047 -1.15914,-0.89403 -1.539081,-1.54094 C 25.58997,155.37312 25.4,154.66907 25.4,153.90839 v -12.09834 c 0,-0.77999 0.18997,-1.48854 0.570177,-2.12566 0.379941,-0.63738 0.892968,-1.14618 1.539081,-1.52665 0.646112,-0.38047 1.34911,-0.5707 2.109258,-0.5707 z"
       fill="#002060"
       fill-rule="evenodd"
       id="path8"
       style="stroke-width:0.264583" />
    <path
       d="m 165.5482,137.58704 h 17.88901 c 0.6858,0 1.24195,0.55456 1.24195,1.23878 v 1.5867 c 0,0.68421 -0.55615,1.23878 -1.24195,1.23878 h -6.84292 v 15.06987 c 0,0.68422 -0.55589,1.23878 -1.24195,1.23878 h -1.59041 c -0.68607,0 -1.24222,-0.55456 -1.24222,-1.23878 V 141.6513 h -6.97151 c -0.6858,0 -1.24195,-0.55457 -1.24195,-1.23878 v -1.5867 c 0,-0.68422 0.55615,-1.23878 1.24195,-1.23878 z"
       fill="#0070c0"
       fill-rule="evenodd"
       id="path9"
       style="stroke-width:0.264583" />
    <path
       d="m 56.503358,141.89975 c -1.404409,0 -2.543175,1.14008 -2.543175,2.54635 v 7.0993 c 0,1.40626 1.138766,2.54608 2.543175,2.54608 h 7.263077 c 1.404408,0 2.543175,-1.13982 2.543175,-2.54608 v -7.0993 c 0,-1.40627 -1.138767,-2.54635 -2.543175,-2.54635 z m -2.247371,-4.04813 h 11.873441 c 2.347119,0 4.249738,1.905 4.249738,4.25476 v 11.86339 c 0,2.34977 -1.902619,4.25477 -4.249738,4.25477 H 54.255987 c -2.347119,0 -4.249738,-1.905 -4.249738,-4.25477 v -11.86339 c 0,-2.34976 1.902619,-4.25476 4.249738,-4.25476 z"
       fill="#0070c0"
       fill-rule="evenodd"
       id="path10"
       style="stroke-width:0.264583" />
    <path
       d="m 74.612499,139.07753 v 17.6565 c 0,0.67704 0.549645,1.22592 1.227613,1.22592 h 1.572102 c 0.677968,0 1.227613,-0.54888 1.227613,-1.22592 v -12.16051 l 9.169162,9.15635 0.03445,0.0143 3.199897,3.19545 0.27432,0.66132 c 0.222171,0.22183 0.529061,0.35904 0.868045,0.35904 h 1.572096 c 0.677982,0 1.227619,-0.54888 1.227619,-1.22592 v -17.6565 c 0,-0.67704 -0.549637,-1.22591 -1.227619,-1.22591 H 92.1857 c -0.677968,0 -1.227614,0.54887 -1.227614,1.22591 v 12.08938 l -9.070075,-9.05743 -0.03445,-0.0143 -3.349413,-3.34472 -0.22389,-0.53977 c -0.222171,-0.22184 -0.529061,-0.35908 -0.868045,-0.35908 h -1.572102 c -0.677968,0 -1.227613,0.54887 -1.227613,1.22591 z"
       fill="#0070c0"
       fill-rule="evenodd"
       id="path11"
       style="stroke-width:0.264583" />
    <path
       d="m 98.954165,156.76801 v -1.52639 c 0,-0.65828 0.547952,-1.19194 1.223695,-1.19194 h 10.16979 l 0.0106,0.004 h 2.4675 l 0.38735,-0.0569 0.0236,0.005 0.1643,-0.0323 0.19183,-0.028 0.0349,-0.0164 0.4154,-0.0817 c 0.49583,-0.20426 0.89297,-0.59108 1.10252,-1.07395 l 0.0503,-0.24183 0.006,-0.008 0.11139,-0.53737 -0.11113,-0.5371 -0.007,-0.009 -0.0495,-0.23813 c -0.20955,-0.48286 -0.60669,-0.86968 -1.10252,-1.07394 l -0.40587,-0.0796 -0.0444,-0.0209 -0.24527,-0.0362 -0.11086,-0.0217 -0.0159,0.003 -0.32596,-0.0482 h -2.56567 l -0.0204,0.004 h -6.89663 v -0.004 h -0.1479 c -2.38046,0 -4.310065,-1.87933 -4.310065,-4.19788 v -3.47106 0 -0.20241 c 0,-2.31828 1.929875,-4.19788 4.310065,-4.19788 h 4.93395 v 0 h 10.16979 c 0.67574,0 1.2237,0.53366 1.2237,1.19195 v 1.52638 c 0,0.65828 -0.54796,1.19195 -1.2237,1.19195 h -10.16979 l -0.0106,-0.004 h -2.4675 l -0.38735,0.0569 -0.0236,-0.005 -0.1643,0.0323 -0.19183,0.0281 -0.0349,0.0164 -0.4154,0.0818 c -0.49583,0.20426 -0.89297,0.59108 -1.10252,1.07394 l -0.0503,0.24183 -0.006,0.008 -0.11139,0.53737 0.11113,0.53711 0.007,0.009 0.0495,0.23812 c 0.20955,0.48287 0.60669,0.86969 1.10252,1.07395 l 0.40587,0.0796 0.0444,0.0209 0.24527,0.0362 0.11086,0.0217 0.0159,-0.003 0.32596,0.0481 h 2.56567 l 0.0204,-0.004 h 6.63707 v 0.004 h 0.40746 c 2.38046,0 4.31007,1.87934 4.31007,4.19788 v 3.47107 0 0.2024 c 0,2.31828 -1.92988,4.19788 -4.31007,4.19788 h -4.93395 v 0 h -10.16979 c -0.675743,0 -1.223695,-0.53366 -1.223695,-1.19194 z"
       fill="#0070c0"
       fill-rule="evenodd"
       id="path12"
       style="stroke-width:0.264583" />
    <path
       d="m 141.12875,137.58439 h 1.57321 c 0.67813,0 1.22873,0.55774 1.22873,1.24592 v 9.96289 0 4.90908 c 0,2.34897 -1.87802,4.25397 -4.19471,4.25397 h -11.71892 c -2.31669,0 -4.19471,-1.905 -4.19471,-4.25397 v -4.87098 0 -10.03909 c 0,-0.66807 0.5334,-1.20782 1.19089,-1.20782 h 1.52506 c 0.65802,0 1.19115,0.53975 1.19115,1.20782 v 10.03909 l -0.004,0.0101 v 2.43576 c 0,1.40705 1.12395,2.54714 2.51036,2.54714 h 7.16836 c 1.38589,0 2.5101,-1.14009 2.5101,-2.54714 v -2.413 l -0.0138,-0.0709 v -9.96289 c 0,-0.68897 0.54954,-1.24698 1.22873,-1.24698 z"
       fill="#0070c0"
       fill-rule="evenodd"
       id="path13"
       style="stroke-width:0.264583" />
    <path
       d="m 149.39248,137.58704 h 1.57004 c 0.67707,0 1.22581,0.55615 1.22581,1.24195 v 15.05638 h 14.86085 c 0.67707,0 1.22582,0.55615 1.22582,1.24195 v 1.59068 c 0,0.6858 -0.54875,1.24195 -1.22582,1.24195 h -16.08666 -1.57004 c -0.67707,0 -1.22582,-0.55615 -1.22582,-1.24195 v -1.59068 -16.29833 c 0,-0.6858 0.54875,-1.24195 1.22582,-1.24195 z"
       fill="#0070c0"
       fill-rule="evenodd"
       id="path14"
       style="stroke-width:0.264583" />
  </g>
</svg>
